<svg width="500" height="400" xmlns="http://www.w3.org/2000/svg">
<link xmlns="http://www.w3.org/1999/xhtml" rel="stylesheet" href="style.css" type="text/css" />
 <path d="M 248.52260087141653 188.7721358048277 L 216.2937761381374 195.56138102335305 A 10 10 0 0 0 213.1491579260158 204.44150891285807 L 233.92304845413264 230.0 A 20 20 0 0 1 223.25751537483652 245.51844692598047 L 191.95191181243786 235.28369339110588 A 10 10 0 0 0 184.78852861078488 241.40180062621116 L 190.0 273.92304845413264 A 20 20 0 0 1 173.00415394543603 282.0296511796642 L 151.0100827470315 257.5132928357909 A 10 10 0 0 0 141.74735729980466 259.2300375236429 L 130.0 290.0 A 20 20 0 0 1 111.2278641951723 288.52260087141656 L 104.43861897664696 256.2937761381374 A 10 10 0 0 0 95.55849108714195 253.14915792601582 L 70.00000000000003 273.92304845413264 A 20 20 0 0 1 54.48155307401953 263.25751537483654 L 64.71630660889413 231.95191181243788 A 10 10 0 0 0 58.598199373788844 224.78852861078488 L 26.076951545867388 230.00000000000006 A 20 20 0 0 1 17.9703488203358 213.0041539454361 L 42.48670716420912 191.01008274703153 A 10 10 0 0 0 40.769962476357065 181.7473572998047 L 10.0 170.00000000000006 A 20 20 0 0 1 11.477399128583471 151.22786419517232 L 43.70622386186261 144.43861897664698 A 10 10 0 0 0 46.85084207398418 135.55849108714193 L 26.076951545867345 110.00000000000003 A 20 20 0 0 1 36.74248462516347 94.48155307401953 L 68.04808818756212 104.71630660889414 A 10 10 0 0 0 75.21147138921512 98.59819937378886 L 69.99999999999994 66.07695154586739 A 20 20 0 0 1 86.99584605456391 57.9703488203358 L 108.98991725296845 82.48670716420912 A 10 10 0 0 0 118.25264270019535 80.76996247635707 L 129.99999999999997 50.0 A 20 20 0 0 1 148.77213580482768 51.47739912858347 L 155.56138102335302 83.70622386186261 A 10 10 0 0 0 164.4415089128581 86.8508420739842 L 190.0 66.07695154586737 A 20 20 0 0 1 205.5184469259804 76.74248462516344 L 195.28369339110583 108.04808818756209 A 10 10 0 0 0 201.40180062621113 115.21147138921512 L 233.9230484541326 109.99999999999994 A 20 20 0 0 1 242.0296511796642 126.99584605456391 L 217.51329283579088 148.98991725296844 A 10 10 0 0 0 219.23003752364292 158.25264270019534 L 250.0 169.99999999999997 A 20 20 0 0 1 248.52260087141653 188.7721358048277"/>
 <circle cx="130" cy="170" r="70"/>
 <path d="M 414.1006524188368 255.39904997395467 L 380.9044857033105 252.12705162064339 A 10 10 0 0 0 374.49747468305833 259.49747468305833 L 382.35764363510464 291.9152044288992 A 15 15 0 0 1 364.0731128489274 302.05048534524406 L 340.7465738040706 278.20590453496646 A 10 10 0 0 0 331.1009019923361 279.7336288664222 L 316.2844257252342 309.6194698091746 A 15 15 0 0 1 295.76282952772635 305.63047559630354 L 293.2206650182317 272.37045669318576 A 10 10 0 0 0 284.8496494554268 267.34064310022944 L 254.28932188134524 280.71067811865476 A 15 15 0 0 1 241.1329432054576 264.4639035015027 L 260.5646602583292 237.35117899424915 A 10 10 0 0 0 257.3851921597652 228.11733315717646 L 225.38053019082543 218.71557427476583 A 15 15 0 0 1 225.7453848358678 197.81306565948526 L 258.05866708258753 189.53398066940844 A 10 10 0 0 0 261.5584549074345 180.41672167815105 L 243.0847955711008 152.6423563648954 A 15 15 0 0 1 256.8001639937502 136.86462983808298 L 286.8752675489481 151.29306024382032 A 10 10 0 0 0 295.416721678151 146.5584549074345 L 299.1180954897479 113.40741737109319 A 15 15 0 0 1 319.7664043757056 110.13704652454261 L 333.5308540383603 140.52176938510746 A 10 10 0 0 0 343.1173331571764 142.3851921597652 L 367.2618261740699 119.36922129633497 A 15 15 0 0 1 385.1815023152048 130.13644899527068 L 376.1947591133419 162.26011479562507 A 10 10 0 0 0 382.3406431002294 169.84964945542674 L 415.630778703665 167.73817382593 A 15 15 0 0 1 422.43700647852353 187.50489456561345 L 394.90406743282017 206.3364830629939 A 10 10 0 0 0 394.7336288664222 216.10090199233605 L 421.5925826289068 235.881904510252 A 15 15 0 0 1 414.1006524188368 255.39904997395467"/>
 <circle cx="325" cy="210" r="50"/>
 <path d="M 437.0633909777092 93.54101966249684 L 411.8694815819261 95.69628333057102 A 10 10 0 0 0 406.8700576850888 101.8700576850888 L 410.0 126.96152422706632 A 15 15 0 0 1 392.47470144906555 133.68885604402834 L 378.0112336627681 112.9479223206738 A 10 10 0 0 0 370.16487628610423 111.70518139898459 L 350.0 126.96152422706632 A 15 15 0 0 1 335.41131047135633 115.1478363815315 L 346.141752080842 92.25163899010278 A 10 10 0 0 0 343.29481860101544 84.8351237138958 L 320.0 75.00000000000001 A 15 15 0 0 1 322.9366090222908 56.458980337503164 L 348.1305184180739 54.30371666942897 A 10 10 0 0 0 353.1299423149112 48.129942314911204 L 350.0 23.038475772933694 A 15 15 0 0 1 367.5252985509344 16.311143955971666 L 381.9887663372318 37.05207767932619 A 10 10 0 0 0 389.83512371389577 38.2948186010154 L 409.99999999999994 23.03847577293366 A 15 15 0 0 1 424.5886895286436 34.852163618468474 L 413.858247919158 57.74836100989718 A 10 10 0 0 0 416.70518139898456 65.16487628610417 L 440.0 74.99999999999993 A 15 15 0 0 1 437.0633909777092 93.54101966249684"/>
 <circle cx="380" cy="75" r="18"/>
</svg>
